<?xml version="1.0" standalone="no"?>
<!DOCTYPE svg PUBLIC "-//W3C//DTD SVG 20010904//EN"
 "http://www.w3.org/TR/2001/REC-SVG-20010904/DTD/svg10.dtd">
<svg version="1.0" xmlns="http://www.w3.org/2000/svg"
 width="500.000000pt" height="500.000000pt" viewBox="0 0 500.000000 500.000000"
 preserveAspectRatio="xMidYMid meet">
<metadata>
Created by potrace 1.16, written by Peter Selinger 2001-2019
</metadata>
<g transform="translate(0.000000,500.000000) scale(0.100000,-0.100000)"
fill="#000000" stroke="none">
<path d="M669 4066 c-112 -43 -196 -114 -241 -207 -103 -212 -21 -452 190
-556 73 -36 80 -38 176 -38 92 1 107 4 169 32 315 148 320 592 8 746 -59 29
-75 32 -166 34 -65 2 -112 -2 -136 -11z"/>
<path d="M1810 4071 c-106 -34 -211 -123 -255 -217 -99 -210 -16 -448 193
-551 73 -37 79 -38 181 -38 93 0 113 4 161 26 327 155 334 598 12 756 -50 25
-70 28 -162 30 -58 1 -116 -2 -130 -6z"/>
<path d="M2943 4066 c-104 -34 -203 -123 -252 -226 -23 -49 -26 -68 -26 -165
0 -103 2 -114 32 -178 40 -85 112 -156 201 -199 62 -30 75 -33 167 -33 92 0
106 3 167 32 319 151 329 584 17 744 -58 30 -74 33 -164 36 -65 2 -115 -2
-142 -11z"/>
<path d="M4090 4071 c-107 -34 -208 -119 -253 -212 -105 -214 -17 -459 201
-562 61 -29 75 -32 167 -32 92 0 105 3 167 33 145 71 229 195 236 352 6 135
-39 244 -138 334 -74 67 -140 91 -255 93 -55 1 -111 -1 -125 -6z"/>
<path d="M2943 2956 c-104 -34 -198 -118 -250 -224 -26 -52 -28 -67 -28 -167
0 -103 2 -114 32 -178 40 -85 111 -155 200 -199 63 -31 75 -33 168 -33 92 0
106 3 167 32 322 152 330 584 14 746 -54 27 -72 31 -161 34 -65 2 -115 -2
-142 -11z"/>
<path d="M755 2661 c-39 -16 -60 -51 -60 -98 0 -38 5 -49 33 -74 42 -37 89
-39 130 -4 38 32 48 72 28 118 -22 53 -80 78 -131 58z"/>
<path d="M1883 2660 c-13 -5 -32 -24 -43 -42 -64 -102 71 -211 159 -129 25 24
31 37 31 71 0 34 -6 48 -34 76 -35 35 -68 42 -113 24z"/>
<path d="M4164 2661 c-34 -15 -64 -60 -64 -98 0 -49 54 -103 102 -103 69 0
116 65 97 134 -15 54 -84 88 -135 67z"/>
<path d="M2980 1857 c-123 -29 -226 -112 -283 -227 -30 -61 -32 -71 -32 -175
0 -104 2 -114 32 -175 43 -88 111 -154 202 -198 68 -33 81 -36 165 -35 67 0
104 5 142 20 114 45 203 132 245 240 32 81 32 215 0 296 -73 187 -279 298
-471 254z"/>
<path d="M755 1551 c-59 -26 -80 -97 -43 -151 31 -45 76 -59 123 -37 95 45 74
174 -31 192 -16 2 -38 1 -49 -4z"/>
<path d="M1890 1553 c-106 -39 -75 -203 38 -203 49 0 102 54 102 105 0 29 -8
45 -34 71 -33 33 -66 42 -106 27z"/>
<path d="M4164 1551 c-63 -27 -82 -108 -38 -160 72 -85 209 -11 174 95 -18 54
-86 86 -136 65z"/>
</g>
</svg>
